<svg width="226" height="246" viewBox="0 0 226 246" fill="none" xmlns="http://www.w3.org/2000/svg">
<g opacity="0.1" clip-path="url(#clip0_236_5590)">
<path d="M200.951 107.137C204.049 108.501 206.98 109.492 209.574 111.042C213.774 113.546 214.521 116.835 212.3 120.964C210.004 125.224 205.039 127.559 201.324 126.027C200.466 125.672 199.364 125.074 199.084 124.327C198.618 123.094 198.207 121.3 198.786 120.366C199.327 119.469 201.138 119.245 202.444 118.983C202.967 118.871 203.601 119.525 204.217 119.693C206.308 120.272 207.708 119.207 208.566 117.489C209.444 115.713 208.044 114.854 206.812 114.013C200.839 109.94 194.717 112.294 193.037 119.151C189.901 131.969 186.056 144.637 178.328 155.456C172.691 163.34 166.121 170.609 159.607 177.821C155.93 181.894 151.636 185.444 147.455 189.032C137.917 197.234 126.438 201.961 114.809 206.035C104.263 209.734 93.1759 210.594 82.1633 208.109C73.2598 206.091 65.7563 201.364 59.746 194.469C56.3302 190.545 56.1435 185.444 56.0502 180.624C55.8635 171.487 58.2527 162.836 63.5351 155.343C67.8095 149.252 72.3079 143.217 77.4969 137.911C90.5814 124.477 106.914 117.302 125.113 113.079C144.768 108.52 164.366 108.894 184.171 110.463C189.882 110.912 194.81 107.997 197.124 102.933C198.319 100.299 197.703 97.5147 195.482 95.4594C193.727 93.8152 189.752 93.4415 187.773 95.0857C186.952 95.7583 186.578 97.2157 186.354 98.3742C186.074 99.9063 185.552 100.934 183.872 100.486C182.248 100.056 182.043 98.6731 182.547 97.3465C182.939 96.3189 183.611 95.3286 184.413 94.5625C189.565 89.5738 199.196 91.4796 202.071 98.0192C203.153 100.467 203.06 101.196 200.97 107.1L200.951 107.137ZM190.05 116.33C185.589 115.994 181.725 115.807 177.862 115.415C157.292 113.397 136.984 114.723 117.161 120.646C110.684 122.571 104.543 125.654 98.2903 128.307C97.4317 128.662 96.7784 129.521 95.7331 130.362C105.514 131.82 107.194 133.763 107.922 143.815C110.255 144.338 112.943 144.301 114.791 145.534C116.583 146.73 117.516 149.234 118.86 151.195C129.294 146.188 135.043 149.327 137.115 157.866C147.754 154.447 149.285 156.128 151.524 164.686C155.444 164.947 159.215 165.19 163.47 165.47C165.692 163.004 168.361 160.183 170.881 157.212C176.592 150.448 180.512 142.601 183.928 134.529C186.018 129.615 187.661 124.514 189.434 119.488C189.752 118.61 189.808 117.638 190.032 116.367L190.05 116.33ZM103.031 171.543C103.573 171.954 104.394 172.477 105.122 173.094C111.3 178.363 110.348 184.678 102.919 187.855C101.37 188.527 99.7649 189.088 97.7303 189.873C102.005 193.516 104.879 197.234 102.527 202.69C113.316 203.157 141.949 188.976 148.967 179.858C137.899 170.123 124.683 165.358 110.964 163.135C108.108 166.162 105.607 168.796 103.031 171.543ZM87.9123 136.902C87.5016 136.752 87.091 136.603 86.699 136.453C85.8217 137.089 84.9071 137.687 84.0485 138.359C77.0116 143.852 72.0466 151.083 67.2682 158.445C62.6391 165.564 60.6046 173.505 60.4739 181.969C60.3433 190.041 65.9429 194.095 71.7292 198.654C74.4917 194.674 77.2916 191.274 79.4008 187.481C82.7232 181.521 85.5044 175.28 86.0271 168.311C86.6617 159.902 87.315 151.494 87.8936 143.086C88.0429 141.031 87.9123 138.976 87.9123 136.92V136.902ZM85.9337 186.08C92.448 188.527 98.0663 186.229 103.479 183.856C107.362 182.156 107.586 178.886 104.207 176.27C100.008 173.038 95.2292 172.309 90.3015 173.71C88.7709 178.027 87.3896 181.95 85.9337 186.061V186.08ZM99.5036 199.607C99.6156 199.159 99.7089 199.009 99.6902 198.86C98.8876 193.105 94.0719 192.395 89.8162 191.031C85.8777 189.779 82.5739 190.171 80.6327 194.581C79.7368 196.618 78.2622 198.374 76.9183 200.485C85.0191 204.652 92.4107 204.148 99.5036 199.607ZM91.1601 150.504C94.8932 149.028 98.2157 147.888 101.389 146.412C103.946 145.216 105.383 142.862 104.898 140.097C104.394 137.182 102.938 134.622 99.5782 133.912C96.0318 133.146 92.5973 132.978 89.7042 135.052C90.1895 140.116 90.6374 144.88 91.1601 150.504ZM91.0854 169.077C95.8451 168.964 100.269 168.329 104.151 165.769C106.634 164.144 106.97 162.63 105.645 160.556C102.789 156.072 96.9091 153.643 91.0854 154.727V169.077ZM115.033 159.734C119.942 161.248 123.899 162.518 127.894 163.639C128.715 163.864 129.872 163.77 130.582 163.34C132.728 162.033 134.352 157.305 133.606 155.101C132.728 152.503 129.312 150.71 125.971 151.382C124.441 151.681 122.798 152.317 121.622 153.288C119.42 155.101 117.497 157.287 115.052 159.753L115.033 159.734ZM111.151 161.098C112.42 157.044 113.764 153.774 114.38 150.373C114.884 147.683 113.671 146.431 110.946 146.225C109.415 146.113 107.66 146.375 106.335 147.085C104.095 148.262 102.117 149.944 100.194 151.289C103.703 154.447 107.026 157.417 111.151 161.098ZM134.091 165.713C137.843 167.713 140.81 169.301 143.722 170.852C146.41 169.301 146.858 166.629 147.791 164.256C148.706 161.976 147.885 159.716 146.167 158.651C145.029 157.941 142.528 158.296 141.296 159.155C138.813 160.855 136.797 163.191 134.11 165.732L134.091 165.713ZM160.223 169.133C155.052 166.648 152.551 167.675 147.866 173.729C149.042 174.962 150.237 176.214 151.636 177.672C154.53 174.794 157.199 172.141 160.204 169.133H160.223Z" fill="#CF7563"/>
<path d="M203.433 311.752C203.732 315.638 204.367 318.852 204.161 322.028C203.863 326.83 200.82 328.96 195.762 328.568C191.151 328.213 187.138 324.644 187.082 320.833C187.045 318.609 188.296 316.797 190.143 316.423C191.991 316.049 193.298 317.189 193.989 319.786C194.978 323.467 195.127 323.579 199.308 323.243C201.249 317.096 199.999 313.06 195.127 311.042C193.615 310.425 191.655 310.332 190.031 310.687C185.122 311.752 180.325 313.247 175.435 314.368C164.105 316.946 152.626 317.544 141.184 315.545C133.214 314.162 125.355 312.088 117.478 310.257C104.45 307.212 93.0639 301.008 82.4245 292.955C74.809 287.2 67.9401 280.904 63.0124 272.72C60.6045 268.703 58.402 264.48 56.8154 260.089C53.5863 251.083 54.1649 241.89 57.1701 232.94C58.7566 228.213 63.0124 225.616 66.9881 223.168C74.473 218.553 82.7979 216.479 91.5707 216.685C111.636 217.152 129.779 223.318 145.831 235.444C147.773 236.901 149.695 238.415 151.431 240.115C165.43 253.83 177.6 268.927 186.037 286.789C187.978 290.9 189.994 294.973 191.973 299.065C194.493 304.259 199.943 307.193 205.524 306.333C208.118 305.941 210.414 303.437 210.75 300.672C211.03 298.299 208.884 294.674 206.588 294.132C205.673 293.908 204.46 294.413 203.527 294.861C202.052 295.552 200.708 295.384 200.484 293.852C200.372 292.993 201.436 291.666 202.332 291.049C202.985 290.601 204.217 290.825 205.151 290.993C210.844 292.077 217.078 301.139 211.777 308.015C210.694 309.416 208.753 310.276 207.073 311.079C205.953 311.602 204.591 311.565 203.452 311.752H203.433ZM124.571 249.588C127.427 254.241 128.939 258.688 123.209 262.387C127.166 264.816 130.507 267.227 131.515 271.487C132.542 275.859 130.619 279.259 127.913 281.408C129.966 284.547 132.728 287.126 133.326 290.134C133.979 293.46 131.067 296.15 127.782 298.243C131.832 300.578 132.486 304.484 133.288 308.015C145.365 312.238 157.497 312.256 169.63 311.061C175.566 310.481 181.427 309.117 187.306 308.015C188.184 307.847 188.968 307.249 189.845 306.838C187.176 301.363 184.525 296.188 182.099 290.9C173.774 272.795 161.66 257.473 147.511 243.665C142.77 239.05 137.301 235.388 131.179 232.062C133.344 243.254 132.654 245.104 124.571 249.607V249.588ZM98.7756 259.192C98.6823 259.827 98.5516 260.743 98.3836 261.659C96.7224 269.861 90.7494 272.085 84.1418 266.984C82.9285 266.049 81.7339 265.078 80.1287 263.789C78.9901 269.394 77.2169 273.822 70.1053 274.271C82.8725 287.966 97.0583 297.552 114.212 303.699C117.236 288.602 114.809 274.85 109.826 261.939C105.775 260.93 102.378 260.089 98.7756 259.192ZM121.697 227.783C120.017 227.017 119.158 226.606 118.281 226.251C110.498 223.112 102.247 222.402 93.9972 221.655C85.131 220.833 76.8995 223 69.1347 226.98C62.6951 230.268 59.2233 237.798 60.1192 245.534C62.919 245.833 65.7935 246.188 68.6867 246.412C77.7395 247.159 86.4563 246.038 94.7065 241.946C101.669 238.49 108.743 235.22 115.705 231.745C117.628 230.773 119.345 229.372 121.697 227.802V227.783ZM77.2915 251.681C79.4007 257.679 83.3765 262.817 87.7069 265.526C91.8133 268.086 94.6878 266.909 95.1358 262.051C95.6024 257.025 94.0159 252.578 90.3574 249.177C85.8217 250.037 81.7153 250.84 77.3102 251.681H77.2915ZM60.5299 250.952C60.9405 260.257 65.2149 266.292 72.7371 270.235C75.481 268.946 76.2649 266.61 76.1156 264.144C75.9289 261.434 75.2756 258.744 74.6037 256.109C73.8011 253.026 72.1398 251.046 68.4627 251.363C66.0922 251.569 63.6657 251.139 60.5485 250.952H60.5299ZM110.722 238.322C114.044 240.9 116.825 243.366 119.886 245.347C122.22 246.86 125.019 246.711 127.073 244.712C129.051 242.787 130.432 240.452 129.424 237.313C128.304 233.819 126.569 230.922 123.545 229.259C119.326 232.23 115.407 234.996 110.703 238.303L110.722 238.322ZM94.2025 247.327C96.1064 249.682 97.4503 251.718 99.1675 253.344C100.903 254.969 102.901 256.427 105.01 257.529C106.727 258.426 108.388 257.94 109.434 255.922C111.767 251.363 110.927 244.73 107.063 240.321C103.087 242.488 99.0182 244.712 94.2212 247.346L94.2025 247.327ZM114.884 264.2C116.153 269.319 117.348 274.046 118.561 278.942C120.39 279.073 121.996 279.428 123.545 279.259C129.032 278.624 131.048 274.028 127.875 269.469C127.147 268.441 126.233 267.357 125.15 266.797C122.033 265.153 118.692 264.125 114.884 264.181V264.2ZM114.753 246.505C113.745 251.27 112.831 255.605 111.729 260.78C115.575 260.014 119.028 259.678 122.257 258.613C125.15 257.66 125.766 255.96 124.459 253.325C123.731 251.83 122.369 250.466 120.969 249.532C119.121 248.299 116.956 247.552 114.735 246.505H114.753ZM119.625 283.37V294.842C122.35 294.693 124.571 294.656 126.774 294.413C129.331 294.132 131.086 292.413 131.44 290.115C131.795 287.761 129.686 286.341 127.707 285.612C125.169 284.659 122.481 284.136 119.625 283.37ZM129.798 307.772C128.939 300.223 123.545 300.485 119.345 298.505C118.785 300.653 118.337 302.297 117.758 304.484C121.678 305.549 125.281 306.539 129.798 307.772Z" fill="#CF7563"/>
<path d="M22.6575 6.93187C25.14 5.00735 27.0813 3.26969 29.2278 1.86835C32.065 0.0185738 35.1261 -1.04645 38.2246 1.41992C41.1364 3.7368 42.779 8.53874 41.5097 11.958C40.9124 13.5649 39.8858 15.1904 38.6166 16.2928C36.862 17.8437 34.1182 17.3392 33.0169 15.6202C31.8597 13.7704 32.4383 12.2383 34.0622 10.9677C34.5662 10.5754 35.1821 10.2577 35.5554 9.75324C36.6754 8.23979 36.5447 6.46475 35.2568 5.34368C34.5475 4.72709 32.8116 4.65235 31.841 5.04472C25.0094 7.88478 23.8521 14.6112 29.1718 19.7308C38.6726 28.8862 47.6134 38.5835 53.1944 50.6724C56.9275 58.7442 59.8206 67.227 62.5272 75.7285C66.5402 88.3405 68.6121 101.27 67.3802 114.611C66.2416 127.148 64.3377 139.499 57.5994 150.429C55.0609 154.54 52.2798 158.707 48.808 162.014C42.7603 167.787 35.3874 171.58 27.0626 172.963C22.1909 173.766 17.8045 171.45 13.7354 169.151C5.63455 164.574 -0.469096 157.997 -4.70618 149.645C-9.20458 140.751 -12.751 131.539 -14.3003 121.674C-16.4095 108.184 -15.5509 94.8988 -11.9857 81.6515C-6.19941 60.1455 4.04797 40.9378 17.1885 23.2061C20.063 19.3197 20.3057 12.6493 17.1139 8.16505C15.3966 5.75474 12.2608 4.83919 9.349 5.90421C7.31445 6.6516 5.18657 9.82797 5.57855 12.1822C5.7652 13.2473 6.79182 14.2936 7.68776 15.0597C8.86369 16.0499 9.57298 17.115 8.45304 18.3108C7.16512 19.6561 5.80253 19.0208 4.70126 17.7502C4.49594 17.5073 4.34662 17.2084 4.17863 16.9281C1.82677 12.8175 3.97331 5.75474 8.50904 2.70915C12.5595 -0.0187953 17.5805 0.915433 20.9776 5.02604C21.4816 5.64263 21.9856 6.24054 22.5829 6.95055L22.6575 6.93187ZM54.3703 69.5065C50.4319 49.6448 38.3926 34.9774 25.1214 20.8332C21.1643 26.7001 17.5805 32.1 13.9221 37.4251C2.55473 53.9796 -4.51952 72.3652 -8.94325 91.8159C-10.2125 97.4026 -10.8098 103.176 -10.1938 109.604C-7.22602 107.1 -5.90077 103.606 -1.94367 103.251C1.78944 102.915 5.01858 103.699 7.91174 106.483C10.7116 101.569 13.6421 97.7389 19.727 100.822C20.0817 96.3002 20.4923 92.2269 23.6281 89.1814C26.8946 86.0237 30.833 86.3413 34.8648 87.6679C35.6861 83.9497 35.5368 80.1567 38.8219 78.1948C41.939 76.3264 45.2802 77.4288 48.6213 78.9048C48.808 74.3645 51.5518 71.8234 54.3703 69.5065ZM56.5542 140.807C57.6741 137.444 58.9434 134.772 59.4287 131.969C61.7992 118.348 63.1058 104.671 60.6979 90.9003C60.5486 90.0222 60.0633 89.2 59.69 88.2098C45.4108 93.0491 34.7901 102.167 26.1853 112.78C27.3612 116.816 28.3319 120.142 29.3585 123.71C29.9744 123.505 30.8517 123.206 31.7477 122.907C39.6619 120.16 44.5709 124.215 43.395 132.511C43.171 134.043 43.0403 135.594 42.7977 137.612C48.1173 135.837 52.8211 135.239 56.5728 140.826L56.5542 140.807ZM37.142 164.461C35.5928 161.117 34.2488 157.997 32.7183 154.97C28.7798 147.16 23.5348 140.489 16.1246 135.613C9.75963 131.427 3.52534 126.999 -2.82095 122.795C-4.61284 121.618 -6.64739 120.814 -8.49528 119.88C-8.94325 120.571 -9.1299 120.721 -9.11123 120.852C-6.89003 135.631 -1.813 149.252 9.08768 159.79C18.8684 169.226 24.0014 170.366 37.1607 164.443L37.142 164.461ZM33.6329 146.151C38.3179 141.536 39.7738 135.93 40.2965 130.101C40.7258 125.336 37.8886 123.43 33.5582 125.467C29.0971 127.559 26.2413 131.166 24.8601 135.93C27.8279 139.387 30.6464 142.694 33.6329 146.169V146.151ZM41.3977 160.93C48.5467 156.128 51.7011 150.747 51.9811 143.367C52.0931 140.358 50.6745 138.808 47.9307 139.891C45.0189 141.05 42.1257 142.825 39.8858 145.011C35.4994 149.271 35.6674 149.589 38.3366 155.063C39.2512 156.95 40.2592 158.781 41.3977 160.949V160.93ZM5.31723 123.804C5.91453 119.6 6.64249 115.975 6.88515 112.313C7.05313 109.716 5.63455 107.436 3.18936 106.595C0.613512 105.699 -2.20499 105.474 -4.48218 107.716C-7.22602 110.407 -9.07391 113.434 -8.73793 117.19C-4.12754 119.357 0.202869 121.394 5.31723 123.804ZM21.0336 133.37C24.0014 128.083 25.308 123.505 24.9721 120.086C24.6734 117.077 23.6841 116.031 21.2016 116.125C15.9939 116.311 10.8609 120.31 8.90101 126.046C12.8768 128.456 16.9645 130.923 21.0336 133.389V133.37ZM36.47 96.8607C36.0034 95.5341 35.8354 94.3383 35.2381 93.4228C33.8195 91.274 32.3263 88.8637 29.3025 89.1253C26.2973 89.3869 24.3561 91.2927 23.3855 94.1515C21.7429 98.9721 23.7775 102.989 25.6067 107.268C29.4705 103.568 32.8302 100.355 36.4887 96.842L36.47 96.8607ZM24.1134 111.846C21.8922 109.006 20.175 106.521 18.1218 104.335C16.9832 103.12 15.49 101.625 13.4554 102.69C11.3462 103.811 9.85295 105.53 9.89029 108.053C9.90895 110.743 10.1329 113.434 10.2823 116.218C14.8927 114.761 19.1111 113.415 24.1321 111.846H24.1134ZM49.9466 87.8548C48.36 85.5379 47.1467 83.5012 45.6535 81.7075C44.1042 79.8577 40.7631 78.8862 39.6618 80.1754C38.5419 81.502 37.646 83.6133 37.7953 85.2763C38.0193 88.0603 39.1579 90.7695 40.0165 93.9272C43.3203 91.9093 46.1575 90.1716 49.9466 87.8548ZM59.0927 84.6971C57.8794 80.6238 57.8608 76.7187 55.6022 73.4116C51.1785 76.2516 50.7679 79.1664 53.7917 86.061C55.2849 85.6687 56.8155 85.2763 59.0927 84.6971Z" fill="#CF7563"/>
<path d="M93.8852 91.8533C98.4769 86.0237 102.49 81.147 106.242 76.0835C108.706 72.7576 107.959 64.2748 105.234 61.36C103.237 59.23 101.109 58.7255 99.2049 59.9213C96.8717 61.3974 96.1437 63.8264 97.5436 66.5543C98.3836 68.1799 98.9249 69.6747 97.189 70.8144C95.4904 71.9542 93.7359 71.5244 92.3546 70.067C91.8133 69.4878 91.328 68.7778 91.0667 68.0304C89.2561 62.9295 96.069 54.727 101.258 56.091C105.383 57.1934 108.164 60.295 109.266 64.5364C109.714 66.2367 109.732 68.0491 110.031 70.4034C110.964 69.4131 111.711 68.7404 112.327 67.9557C114.529 65.1343 116.638 62.2569 118.841 59.4542C121.044 56.6515 121.678 53.6994 120.017 50.3922C119.289 48.9348 118.766 47.384 118.094 45.9266C116.601 42.7128 116.209 42.6568 112.551 45.31C113.017 46.5432 113.615 47.8511 114.007 49.1964C114.529 50.9901 113.951 52.4288 112.215 53.2322C110.647 53.9609 108.594 53.0828 107.866 51.1769C106.876 48.6172 106.932 45.9079 108.706 43.7779C110.721 41.3675 113.335 39.3683 116.694 40.1717C117.964 40.4707 119.252 42.0402 119.924 43.3481C121.249 45.9266 122.145 48.7293 123.489 52.1112C125.523 49.8877 127.222 47.9819 128.976 46.1321C130.6 44.4318 131.982 42.1523 135.024 43.2173C136.181 45.4595 134.949 46.9729 133.68 48.4864C132.467 49.9251 131.272 51.3825 129.219 53.8488C134.501 52.5035 137.451 54.6523 140.232 57.1934C142.098 58.8937 142.602 60.9863 142.154 63.3967C141.165 68.6844 138.029 72.085 133.736 72.0663C132.243 72.0663 130.526 71.4684 129.294 70.6089C127.502 69.357 127.259 66.573 128.416 64.8914C129.63 63.1538 131.272 62.9295 133.139 63.6956C133.867 63.9946 134.576 64.3309 135.211 64.6112C138.104 61.304 138.123 61.0984 136.2 58.3518C133.885 55.0633 132.952 54.6896 129.816 55.9976C128.622 56.502 127.203 56.9505 126.457 57.8847C122.835 62.369 119.401 67.0215 115.519 72.1223C120.558 73.1126 123.993 75.1306 126.401 78.9796C128.062 81.6328 128.416 84.0431 126.905 86.715C126.195 87.9855 125.467 89.2561 124.609 90.4519C122.313 93.6657 119.102 94.1141 116.433 91.2927C115.5 90.3024 114.94 88.3406 115.22 87.0326C115.425 86.0984 117.236 85.0521 118.449 84.8839C123.097 84.2299 123.937 82.6231 121.305 78.7554C118.654 74.8316 114.604 74.2524 111.599 77.6904C107.231 82.6604 103.125 87.8548 98.2342 93.7778C100.661 93.5535 102.005 93.3854 103.367 93.292C110.833 92.7314 116.041 99.5139 113.521 106.502C111.804 111.285 105.644 114.163 101.202 112.07C100.007 111.509 98.8875 110.314 98.2529 109.118C97.4316 107.586 97.7489 105.829 99.3542 104.82C100.978 103.811 102.042 104.82 102.957 106.166C103.293 106.651 103.871 106.988 104.263 107.324C108.276 105.493 109.863 103.027 108.874 100.429C107.735 97.5147 103.498 95.5528 100.25 96.8233C96.9837 98.0939 93.8292 99.4579 91.7946 102.877C88.5655 108.314 84.8697 113.471 81.2299 118.647C79.4007 121.225 77.9261 124.252 73.6331 125.878C74.4357 123.71 74.7343 122.178 75.4996 120.926C78.8781 115.377 82.1632 109.772 85.8963 104.465C89.1814 99.8129 90.5814 94.8241 89.8347 89.3122C89.5174 87.014 88.5282 84.6597 87.2962 82.6604C85.8776 80.3622 83.6191 80.138 81.9019 81.5581C79.9607 83.1649 79.438 86.3413 80.9686 88.1163C81.5846 88.8264 82.5925 89.2 83.2645 89.8914C84.6457 91.3675 84.5711 93.4414 83.1525 94.6373C81.6592 95.8704 80.1287 95.6836 78.7287 94.5065C73.5771 90.2277 75.5369 79.017 81.8459 76.6814C84.6644 75.635 87.0163 76.7561 88.9388 78.6433C91.4213 81.0723 93.1012 84.0244 93.5492 87.5558C93.6799 88.6395 93.7359 89.7419 93.9038 91.7972L93.8852 91.8533Z" fill="#CF7563"/>
<path d="M190.293 215.153C195.221 215.732 200.148 216.386 205.095 216.872C207.689 217.133 209.854 216.068 211.441 213.957C213.084 211.752 214.689 209.529 216.667 206.838C215.379 205.829 214.222 204.951 212.897 203.923C211.646 205.456 210.937 206.913 209.78 207.586C208.716 208.221 206.943 208.538 205.879 208.09C204.199 207.361 204.031 205.586 204.777 203.886C205.916 201.251 210.134 199.42 213.102 200.448C214.614 200.971 216.089 201.775 217.339 202.765C219.84 204.727 220.102 206.894 218.217 209.529C216.443 211.995 214.502 214.349 212.617 216.778C216.835 219.544 222.678 217.638 225.981 222.421C222.379 226.494 218.478 222.888 214.689 223.505C215.342 225.112 216.257 226.606 216.499 228.195C216.761 229.914 216.574 231.763 216.275 233.52C215.603 237.593 212.934 239.48 207.726 239.779C203.639 240.003 200.316 238.06 199.196 234.697C198.543 232.716 198.58 230.661 200.279 229.334C201.306 228.531 203.023 227.877 204.18 228.176C205.263 228.456 206.177 229.97 206.831 231.109C207.26 231.857 207.129 232.941 207.26 233.8C211.814 234.361 212.076 234.211 213.55 230.343C214.782 227.167 214.67 226.42 211.422 224.42C209.705 223.355 207.652 222.701 205.655 222.29C202.481 221.636 199.234 221.337 196.023 220.945C194.474 220.758 192.906 220.721 190.853 220.571C192.551 225.317 192.421 229.297 190.293 233.333C188.8 236.154 186.802 237.481 183.797 237.574C182.341 237.612 180.867 237.537 179.43 237.369C175.472 236.902 173.811 234.491 174.67 230.605C175.062 228.849 176.032 227.373 177.843 227.485C179.075 227.559 180.605 228.4 181.352 229.39C184.04 232.978 185.664 232.997 187.81 229.129C190.293 224.626 188.613 220.609 183.573 219.637C177.227 218.423 170.843 217.488 163.452 216.255C164.833 218.124 165.654 219.189 166.401 220.291C170.601 226.494 167.465 234.398 160.26 235.855C155.332 236.864 149.639 232.959 149.21 228.064C149.098 226.737 149.49 225.13 150.199 224.009C151.095 222.571 152.756 221.879 154.455 222.739C156.154 223.598 155.892 225.018 155.164 226.494C154.903 227.036 154.922 227.709 154.847 228.213C158.412 230.848 161.231 230.979 163.078 228.699C164.87 226.476 164.59 221.842 162.089 219.768C159.42 217.544 156.751 215.377 152.738 215.284C145.458 215.097 138.179 214.256 130.899 213.677C128.51 213.49 126.121 213.247 123.601 211.154C125.169 210.65 126.158 210.052 127.129 210.052C132.15 210.089 137.171 210.239 142.192 210.407C145.44 210.519 148.669 210.949 151.916 210.893C157.553 210.781 162.164 208.202 166.009 204.222C166.774 203.438 167.26 202.316 167.652 201.251C168.622 198.673 167.894 196.711 165.841 196.02C163.396 195.198 160.447 196.337 159.681 198.505C159.42 199.234 159.569 200.112 159.42 200.896C159.028 202.97 157.759 204.054 155.631 203.755C153.671 203.475 152.626 201.401 153.204 199.196C154.287 195.104 160.708 190.938 165.094 191.517C170.993 192.302 173.531 196.412 171.515 202.018C170.097 205.96 167.372 208.856 162.892 211.341C164.814 211.715 165.804 211.976 166.812 212.107C170.993 212.668 175.304 212.724 179.336 213.826C184.208 215.171 187.941 213.191 191.525 210.725C193.111 209.622 194.343 207.586 195.053 205.698C196.098 202.877 195.109 200.859 192.962 199.981C190.461 198.953 188.277 199.476 186.784 201.887C185.682 203.662 184.507 204.708 182.472 203.643C180.848 202.802 180.232 200.373 181.427 198.505C182.248 197.234 183.536 195.982 184.917 195.385C188.445 193.852 194.231 195.272 196.509 198.337C197.46 199.626 197.908 201.625 197.834 203.269C197.572 208.389 194.698 211.976 190.013 214.237C190.125 214.574 190.237 214.891 190.349 215.228L190.293 215.153Z" fill="#CF7563"/>
<path d="M51.6637 211.378C51.6264 211.659 51.6637 212.481 51.4397 213.266C50.3944 217.133 49.6291 221.15 48.0986 224.831C46.232 229.316 42.5549 232.66 38.2058 234.473C33.6514 236.36 28.6677 237.948 23.796 238.116C17.1138 238.378 11.2341 235.463 6.82903 230.082C5.61577 228.606 4.12252 227.391 2.8906 225.934C1.95732 224.831 1.00538 223.654 0.501408 222.346C-1.88778 216.255 -2.59707 210.108 0.408089 203.961C0.688072 203.381 1.17337 202.784 1.17337 202.186C1.11737 197.234 4.29053 194.245 7.61299 191.311C11.0288 188.303 15.0045 186.733 19.5029 186.36C20.1562 186.304 20.9215 186.435 21.4068 186.117C25.3079 183.613 29.1717 184.902 33.0728 186.061C37.4405 187.369 40.8563 189.929 43.6002 193.497C44.1975 194.263 44.6641 195.16 45.3361 195.833C49.8718 200.28 51.7384 204.633 51.6824 211.341L51.6637 211.378ZM47.3333 210.5C46.96 206.352 46.624 202.709 44.1041 199.943C41.715 197.309 39.1204 194.805 36.3206 192.619C32.7742 189.816 28.6117 188.378 24.0573 189.349C20.9029 190.022 17.7857 190.994 14.7619 192.115C10.3382 193.759 6.9037 196.692 5.31712 201.251C4.36518 203.998 3.78655 206.894 3.30124 209.753C2.31197 215.639 2.98393 221.057 8.09829 225.093C9.6102 226.289 10.8608 227.84 12.298 229.147C16.9084 233.333 22.0601 235.332 28.2944 233.015C30.105 232.343 32.1395 232.156 33.8568 231.315C36.4326 230.063 39.0644 228.755 41.2483 226.924C46.4933 222.514 45.4667 215.695 47.352 210.5H47.3333Z" fill="#CF7563"/>
<path d="M123.302 173.953C125.467 173.916 127.483 176.046 127.521 178.4C127.558 180.997 125.187 183.314 122.537 183.239C120.129 183.165 118.113 181.203 118.169 178.979C118.225 176.793 121.1 173.99 123.302 173.953Z" fill="#CF7563"/>
<path d="M79.2701 169.973C79.3447 171.954 77.6835 173.524 75.4623 173.505C73.4837 173.505 71.9718 172.645 71.5799 170.571C71.2252 168.609 73.3158 166.741 75.6676 166.778C77.7208 166.797 79.1954 168.105 79.2514 169.955L79.2701 169.973Z" fill="#CF7563"/>
<path d="M85.5978 230.904C87.6696 230.941 89.6295 232.903 89.6482 234.977C89.6482 236.883 88.1176 238.359 86.2137 238.247C84.1605 238.116 82.294 236.042 82.462 233.912C82.6113 232.044 83.6192 230.941 85.5791 230.904H85.5978Z" fill="#CF7563"/>
<path d="M41.2297 109.622C41.2857 107.1 43.115 105.362 45.5415 105.512C48.0427 105.661 49.9652 107.754 49.9465 110.314C49.9465 112.911 47.9307 115.022 45.4855 115.022C43.003 115.022 41.1551 112.687 41.2297 109.604V109.622Z" fill="#CF7563"/>
<path d="M17.8605 146.917C17.7485 149.159 15.8072 151.083 13.8287 150.934C12.0555 150.803 10.8422 149.121 11.0475 147.047C11.2528 144.899 12.8394 143.329 14.818 143.348C16.7592 143.348 17.9725 144.787 17.8791 146.917H17.8605Z" fill="#CF7563"/>
<path d="M23.4974 228.961C21.3882 228.12 19.447 227.466 17.6178 226.588C16.6098 226.121 15.7325 225.355 14.8552 224.626C7.22103 218.366 5.85844 208.37 12.0367 200.56C13.698 198.467 16.6658 197.159 19.2603 196.076C29.825 191.648 36.8246 197.627 41.2297 206.203C44.2722 212.145 39.4564 223.393 33.2595 225.952C30.161 227.242 26.8385 227.952 23.4974 228.961Z" fill="#CF7563"/>
</g>
<defs>
<clipPath id="clip0_236_5590">
<rect width="402" height="423" fill="white" transform="translate(-176)"/>
</clipPath>
</defs>
</svg>
