<svg width="201" height="214" viewBox="0 0 201 214" fill="none" xmlns="http://www.w3.org/2000/svg">
<g opacity="0.1" clip-path="url(#clip0_236_5619)">
<path d="M25.1801 106.956C21.9322 105.536 19.1324 104.602 16.6499 103.144C11.8902 100.323 11.2369 96.063 14.634 91.6534C16.6312 89.0562 19.2444 87.468 22.5669 87.6736C23.9295 87.767 25.4227 88.3462 26.5053 89.187C27.8492 90.2147 28.4279 91.8216 27.5132 93.5405C26.5986 95.2595 25.0494 95.7827 23.3882 95.0353C21.4283 94.1571 19.6924 93.7461 18.1058 95.5398C16.9672 96.8103 16.7619 98.2304 18.2738 99.3141C20.7936 101.126 23.4442 102.901 26.7853 101.799C30.0144 100.734 32.217 98.8843 33.0569 95.1287C35.9314 82.0682 40.0378 69.344 47.84 58.3762C53.365 50.6034 59.8233 43.4659 66.2256 36.3844C70.0147 32.1991 74.4384 28.5556 78.7315 24.8561C88.2696 16.6722 99.7489 11.9637 111.378 7.90914C121.924 4.22828 133.03 3.40616 144.024 5.92858C152.908 7.9652 160.449 12.7298 166.348 19.6804C170.025 24.0152 170.137 29.658 169.95 34.9831C169.595 44.587 166.31 53.2005 160.897 61.2723C151.135 75.8462 138.443 86.7767 122.558 94.0263C119.758 95.2969 116.94 96.6048 113.991 97.4643C94.3733 103.088 74.4758 106.433 53.9437 104.303C49.5946 103.854 45.2082 103.612 40.8405 103.331C35.6701 102.995 29.5291 107.498 28.3345 112.412C27.8306 114.486 29.3611 117.98 31.2837 119.176C33.0569 120.278 37.3313 120.147 38.6193 118.615C39.3472 117.756 39.1979 116.205 39.8138 115.177C40.2805 114.393 41.3071 113.944 42.0724 113.346C42.595 114.243 43.5656 115.159 43.547 116.037C43.5283 117.027 42.7443 118.129 42.035 118.97C38.022 123.81 27.9612 122.894 25.2174 118.279C23.5188 115.401 22.5855 112.767 24.0974 109.609C24.5081 108.75 24.7881 107.834 25.1427 106.956H25.1801ZM35.8194 97.8193C40.9338 98.137 45.3015 98.3425 49.6693 98.6788C65.591 99.8933 81.4007 99.9306 97.0984 96.2498C107.234 93.8769 117.388 91.7281 126.534 86.4591C127.691 85.7864 128.793 84.983 130.379 83.9367C120.785 82.4045 118.06 79.1721 118.209 69.9232C113.132 69.8672 108.204 69.3066 107.943 62.0944C104.023 64.5234 100.216 65.9621 96.0532 64.8597C91.6667 63.7013 89.6695 60.3194 89.2216 56.6946C85.5444 56.9375 81.998 58.0399 79.0302 57.143C75.6144 56.0967 74.9797 52.0795 74.6438 49.445C70.5187 49.1647 66.7669 48.9031 62.7165 48.6228C51.7785 58.9367 44.2562 71.7917 39.7205 86.5151C38.9552 88.9815 37.8353 91.3357 36.9394 93.7647C36.51 94.9419 36.2674 96.1751 35.8194 97.8006V97.8193ZM123.38 10.9174C105.853 14.5608 90.4162 21.9973 76.641 33.806C88.251 44.0077 101.466 48.8471 114.98 50.8463C118.097 47.6326 120.486 45.1662 122.969 42.5877C122.316 42.0832 121.457 41.5974 120.841 40.9061C119.684 39.5795 118.433 38.2342 117.668 36.6834C115.745 32.8157 117.127 29.3964 121.457 27.0608C123.492 25.9584 125.675 25.155 128.251 24.0152C123.809 20.3904 121.102 16.7283 123.38 10.936V10.9174ZM154.551 15.1775C151.788 19.0825 149.138 22.3336 147.029 25.9211C143.65 31.6759 140.813 37.7671 140.179 44.4935C139.32 53.5369 138.741 62.5989 138.163 71.6796C138.032 73.6415 137.584 75.8276 139.413 77.7334C140.179 77.1542 140.813 76.687 141.429 76.2013C148.317 70.8201 153.244 63.7947 158.116 56.6759C162.951 49.6131 164.966 41.6908 165.601 33.3388C165.937 28.948 164.63 24.9682 161.569 21.7357C159.591 19.6431 157.351 17.7746 154.551 15.1588V15.1775ZM140.179 27.8269C133.608 25.865 128.083 27.6587 122.782 30.0504C118.694 31.9001 118.433 35.2447 122.017 37.9353C126.142 40.9995 130.827 41.5227 135.68 40.4577C137.192 36.1976 138.592 32.2738 140.179 27.8456V27.8269ZM149.101 13.6079C142.213 9.92708 135.643 9.75892 128.942 13.0661C125.955 14.5422 125.451 16.1304 127.617 18.5967C130.08 21.3994 133.478 22.4271 137.005 23.2305C140.738 24.0713 143.538 23.3239 145.293 19.5683C146.245 17.5504 147.682 15.7753 149.082 13.6079H149.101ZM135.437 63.3836C131.331 64.9905 127.878 66.149 124.593 67.6811C122.036 68.8582 120.561 71.2685 121.121 74.0152C121.7 76.8739 123.137 79.3589 126.515 80.1624C130.118 81.0219 133.44 80.9098 136.632 78.761C136.221 76.3881 135.661 74.202 135.493 71.9786C135.307 69.5869 135.456 67.1766 135.456 63.365L135.437 63.3836ZM134.99 44.6056C132.04 45.1475 129.315 45.4464 126.721 46.2125C124.742 46.7917 122.838 47.782 121.102 48.9218C119.628 49.8747 119.18 51.4255 120.113 53.1819C122.521 57.6849 129.334 60.5996 134.99 59.2357V44.6243V44.6056ZM95.9412 49.9307C94.9519 51.4068 93.5893 52.8455 92.9173 54.5458C91.0508 59.2357 93.9253 63.0473 98.9463 62.8791C103.37 62.7297 108.634 58.3201 109.866 53.9292C105.386 52.64 100.906 51.3694 95.9598 49.9494L95.9412 49.9307ZM125.899 62.8418C122.222 59.5533 118.825 56.5264 114.849 52.9576C113.599 57.0682 112.46 60.5062 111.546 64.0002C111.042 65.8874 112.218 67.0271 113.916 67.6437C116.025 68.4098 118.041 68.2229 119.908 66.9711C121.905 65.6258 123.865 64.2431 125.918 62.8418H125.899ZM91.9281 48.3986C88.2696 46.418 85.2271 44.7738 81.5314 42.7746C80.2621 45.5212 78.6942 47.8568 78.2089 50.4165C77.9102 52.0047 78.8808 54.3029 80.0568 55.4987C80.7474 56.1901 83.3606 55.8724 84.4618 55.0877C87.0377 53.2566 89.2216 50.8836 91.9467 48.3986H91.9281ZM78.4515 40.5698C76.9583 39.1871 75.689 38.01 74.2891 36.7021C71.5639 39.374 68.8388 42.0459 66.0763 44.7551C70.3694 47.6139 71.7133 47.1654 78.4515 40.5698Z" fill="#CF7563"/>
<path d="M203.455 207.143C200.729 209.179 198.546 211.16 196.044 212.598C191.154 215.401 187.346 213.981 185.032 208.843C183.613 205.648 183.557 202.397 185.666 199.594C186.618 198.323 188.429 197.277 189.978 197.053C190.986 196.903 192.685 198.155 193.263 199.22C193.693 199.986 193.133 201.817 192.405 202.584C191.173 203.873 189.493 204.658 189.829 206.862C190.165 209.086 191.49 209.964 193.599 209.291C200.599 207.03 202.204 199.519 196.866 194.362C187.365 185.207 178.368 175.528 172.824 163.439C168.979 155.069 166.03 146.25 163.174 137.468C160.524 129.284 158.601 120.839 158.415 112.188C158.041 95.4649 159.721 79.1532 167.971 64.0748C172.731 55.3865 179.395 48.66 188.149 44.3252C195.671 40.607 203.473 39.6728 211.35 44.2692C218.536 48.4545 224.565 53.8543 228.709 60.9358C234.831 71.3618 239.05 82.6286 240.618 94.6988C242.26 107.404 241.271 119.867 237.949 132.311C232.218 153.854 221.934 173.025 208.812 190.775C205.806 194.829 205.806 201.631 208.774 205.835C210.548 208.338 213.59 209.291 216.502 208.226C218.648 207.442 220.646 204.471 220.291 201.986C220.142 200.921 219.171 199.818 218.312 199.052C217.192 198.062 216.409 197.072 217.528 195.82C218.854 194.325 220.216 195.091 221.206 196.343C221.784 197.072 222.195 198.024 222.456 198.94C224.08 204.471 219.526 211.571 213.833 212.598C210.324 213.234 207.412 212.505 205.265 209.478C204.705 208.693 204.089 207.965 203.455 207.161V207.143ZM171.369 144.755C172.712 148.884 173.851 152.939 175.344 156.881C178.349 164.841 182.978 171.903 188.037 178.649C191.229 182.909 194.831 186.888 198.303 190.943C199.012 191.765 199.983 192.363 200.972 193.204C202.353 191.111 203.529 189.205 204.836 187.393C217.603 169.773 227.683 150.883 233.245 129.676C235.111 122.557 236.157 115.383 236.474 108.077C236.511 107.068 236.269 106.04 236.082 104.228C233.32 107.348 231.677 110.394 227.795 110.898C223.987 111.403 220.982 109.796 218.032 108.002C213.273 114.747 212.75 115.009 207.169 113.682C205.601 117.419 204.687 121.492 202.428 124.594C199.777 128.219 195.428 127.957 191.415 126.407C189.399 135.749 188.093 138.869 177.398 135.188C177.36 139.542 174.542 142.214 171.369 144.773V144.755ZM183.277 76.9485C180.253 77.2287 177.752 77.9948 175.512 77.5277C173.384 77.098 171.518 75.379 168.998 73.9216C163.79 90.7937 162.633 107.927 165.844 125.995C180.403 121.063 191.191 112.019 200.225 100.715C199.292 98.7907 198.322 97.2586 197.836 95.5957C197.351 93.9514 197.37 92.139 197.146 90.0464C196.007 90.4948 195.148 90.8685 194.271 91.1674C186.338 93.8954 181.317 89.7287 182.587 81.4888C182.811 80.0875 183.016 78.6861 183.296 76.9298L183.277 76.9485ZM188.989 49.7251C190.65 53.3499 192.069 57.1241 194.029 60.5995C197.631 66.9896 201.905 72.9126 208.084 77.154C215.177 82.012 222.288 86.8513 229.418 91.6532C231.08 92.7743 232.76 94.0075 235.223 93.6525C235.13 92.7182 235.093 92.1017 235.018 91.4851C233.861 83.3386 230.65 75.9395 227.253 68.5217C223.968 61.3842 219.078 55.7975 213.086 50.8835C205.415 44.6055 199.068 44.6055 188.989 49.7437V49.7251ZM192.405 67.9238C187.552 72.6323 186.077 78.4059 185.76 84.4784C185.536 88.7758 188.074 90.4574 192.031 88.7384C196.716 86.7018 199.74 83.077 201.121 78.0882C198.154 74.6129 195.335 71.3244 192.423 67.9238H192.405ZM174.131 73.4918C180.608 74.9866 185.536 71.7542 189.847 63.4395C188.186 60.1697 186.469 56.7318 184.602 53.0322C176.968 57.9836 173.646 64.5793 174.15 73.4731L174.131 73.4918ZM220.646 90.1958C220.086 94.5493 219.376 98.3236 219.171 102.135C219.04 104.546 220.496 106.582 222.736 107.442C225.163 108.357 227.794 108.638 230.034 106.694C233.077 104.06 234.999 100.883 234.831 96.8849C230.221 94.7175 225.909 92.6622 220.646 90.1958ZM204.425 80.3677C203.231 84.0112 202.092 86.8513 201.42 89.8034C201.009 91.6345 201.103 93.6525 201.345 95.5396C201.532 97.1465 202.745 97.9873 204.463 98.006C209.652 98.0433 215.363 93.6525 217.062 88.0097C213.142 85.6368 209.148 83.2265 204.425 80.3864V80.3677ZM189.885 118.036C189.885 118.036 189.997 118.821 190.314 119.549C191.957 123.454 194.57 125.323 197.538 124.744C200.617 124.146 203.361 120.913 203.268 117.195C203.175 113.552 202.335 110.001 200.617 107.348C197.202 110.749 193.898 114.037 189.903 118.017L189.885 118.036ZM201.887 102.266C204.201 105.125 205.918 107.89 208.252 109.964C211.425 112.785 215.289 111.291 215.979 107.012C216.483 103.948 216.334 100.734 215.363 97.9312C210.939 99.3513 206.833 100.678 201.887 102.266ZM176.763 125.79C176.931 129.153 179.04 131.321 181.205 133.077C182.381 134.03 184.677 134.441 186.077 133.974C187.104 133.637 187.962 131.489 188.112 130.05C188.466 126.649 187.141 123.566 185.61 120.297C182.493 122.221 179.656 123.978 176.744 125.771L176.763 125.79ZM166.907 129.415C167.934 133.376 168.867 137.001 169.857 140.775C174.803 138.103 175.214 135.599 172.339 127.939C170.715 128.387 169.073 128.836 166.907 129.433V129.415Z" fill="#CF7563"/>
<path d="M113.393 168.615C112.927 167.326 112.049 165.962 112.068 164.617C112.068 163.383 112.721 161.683 113.673 161.01C115.148 159.964 116.772 160.73 117.836 162.262C119.385 164.486 119.049 168.821 116.846 170.839C115.446 172.128 113.692 173.174 111.919 173.865C109.38 174.837 107.514 173.978 106.338 171.436C105.05 168.652 104.042 165.719 102.81 162.636C98.1621 164.467 97.0235 171.063 91.1812 171.324C89.184 166.093 94.709 164.673 95.7543 160.768C91.5172 161.309 88.2881 159.46 85.5442 156.638C82.9497 153.966 83.1924 149.744 86.0669 145.446C88.0081 142.531 91.9465 141.149 95.045 142.307C97.6395 143.279 99.0207 146.268 97.9568 148.66C97.0049 150.809 95.325 151.201 92.2265 150.024C91.7785 149.856 91.3305 149.688 90.9199 149.519C87.9894 152.378 87.8961 152.864 89.6693 155.517C92.0772 159.086 93.1224 159.628 96.3516 157.928C98.2741 156.919 100.103 155.424 101.503 153.761C104.508 150.173 107.215 146.324 110.332 142.195C109.1 141.728 108.298 141.261 107.458 141.13C102.903 140.345 100.607 136.926 98.7408 133.32C98.0315 131.956 98.3301 129.807 98.7968 128.2C99.2821 126.537 100.439 125.043 101.466 123.585C103.818 120.259 107.402 119.998 109.94 123.156C110.724 124.127 111.209 125.996 110.799 127.079C110.425 128.107 108.764 129.116 107.551 129.265C102.922 129.882 102.082 131.451 104.676 135.301C107.252 139.15 111.452 139.747 114.401 136.384C118.638 131.545 122.651 126.5 127.355 120.801C124.798 120.801 123.286 120.82 121.774 120.801C114.718 120.689 110.183 114.28 112.46 107.647C114.084 102.901 120.299 99.9306 124.742 102.023C126.03 102.64 127.355 104.06 127.784 105.386C128.139 106.47 127.542 108.357 126.683 109.179C125.302 110.525 124.089 109.31 123.137 108.021C122.782 107.535 122.241 107.18 121.849 106.825C117.78 108.469 116.137 110.861 117.126 113.57C118.116 116.298 122.203 118.484 125.227 117.401C128.512 116.224 131.816 115.046 133.888 111.627C137.173 106.227 140.85 101.052 144.471 95.8761C146.375 93.1481 148.018 90.0651 151.396 88.4209C152.516 90.3828 151.434 91.7281 150.631 93.0173C147.122 98.6601 143.855 104.49 139.954 109.852C136.333 114.86 135.661 120.297 136.296 126.033C136.501 127.845 137.565 129.695 138.629 131.265C140.178 133.582 142.269 133.937 144.005 132.61C146.189 130.91 146.655 127.602 144.882 125.697C144.341 125.117 143.482 124.856 142.922 124.295C141.392 122.782 141.317 120.857 142.717 119.568C144.117 118.298 145.853 118.148 147.122 119.419C150.108 122.427 150.631 126.332 149.959 130.293C149.343 133.899 147.066 136.496 143.463 137.468C140.664 138.234 138.312 136.907 136.557 134.833C134.336 132.218 132.507 129.34 132.507 125.678C132.507 124.762 132.357 123.847 132.208 122.109C131.032 123.511 130.323 124.314 129.67 125.155C127.224 128.387 125.171 132.031 122.278 134.796C118.47 138.421 118.134 142.756 118.601 147.296C118.788 149.239 119.87 151.313 121.121 152.883C122.987 155.237 125.153 155.405 127.075 153.966C129.278 152.322 129.931 150.136 128.624 147.688C127.672 145.932 127.038 144.4 129.054 143.073C130.64 142.046 132.768 142.681 134.149 144.512C134.448 144.904 134.691 145.315 134.896 145.764C136.221 148.903 134.523 153.07 130.827 155.872C127.299 158.525 124.686 158.619 121.531 156.358C117.462 153.443 116.212 149.202 115.876 143.185C111.993 148.473 108.596 152.715 105.759 157.274C104.919 158.619 105.404 161.029 105.796 162.842C106.207 164.71 107.178 166.466 107.999 168.241C109.436 171.306 110.108 171.362 113.412 168.634L113.393 168.615Z" fill="#CF7563"/>
<path d="M63.2203 2.60263C60.7565 2.22894 59.2072 1.96735 57.658 1.7805C53.9622 1.31339 50.1171 1.35076 46.5707 0.304422C41.475 -1.19034 37.6299 1.07049 34.0461 3.79844C32.4222 5.01294 31.5262 7.44193 30.7983 9.51591C30.0703 11.5899 31.0036 13.3463 33.1501 14.2057C35.4087 15.1213 37.8539 14.5794 39.0671 12.5989C40.187 10.7865 41.2137 9.14222 43.6028 10.5249C45.4694 11.6086 45.88 14.5981 44.1068 16.5226C42.9869 17.7371 41.2696 18.7274 39.6457 19.1011C35.8006 19.998 30.2756 17.924 28.8757 14.9905C27.1025 11.2536 28.2411 7.59141 30.4996 4.47109C31.8809 2.56526 33.9714 1.16391 36.3046 -0.966129C30.593 -1.65746 25.2919 -2.55431 19.9349 -2.79721C18.2924 -2.87195 16.2578 -1.50798 14.9699 -0.218744C12.9353 1.81787 11.4048 4.35897 9.72486 6.58244C12.2074 10.4128 12.6927 10.5249 15.2312 7.49799C16.3511 6.1527 17.4897 4.9382 19.2816 5.61085C20.1776 5.94717 21.1482 6.99351 21.4095 7.89037C21.9508 9.83356 20.8309 11.2723 19.263 12.3933C15.6232 14.9905 9.55687 13.7013 7.27968 9.85224C6.14108 7.92773 6.45839 6.13402 7.80231 4.43372C9.61287 2.15421 11.4048 -0.125313 13.402 -2.64773C9.29556 -5.56252 3.13592 -3.41381 -0.0185547 -8.42127C3.75189 -12.5132 7.83964 -8.6268 12.0021 -9.43024C8.82892 -12.4758 9.09024 -15.9698 9.7062 -19.5946C10.1915 -22.5094 11.8901 -24.1724 14.5779 -25.0692C19.6363 -26.7321 24.0227 -25.4803 26.2065 -21.7807C27.2705 -19.9683 27.5505 -18.1186 26.5052 -16.2314C25.5533 -14.5124 24.0413 -13.6529 22.0628 -13.9145C20.1776 -14.1574 19.2443 -15.3719 19.0576 -17.1843C18.983 -17.9691 18.927 -18.7538 18.871 -19.4825C14.6526 -20.5289 14.3539 -20.4354 12.9167 -17.4646C11.0128 -13.5595 11.0688 -12.5319 14.2606 -10.5139C16.0898 -9.35549 18.311 -8.53338 20.4576 -8.15969C25.0493 -7.37494 29.697 -6.96387 34.83 -6.34728C34.4754 -8.23442 34.2327 -9.5984 33.9714 -10.9437C33.2061 -14.9609 34.83 -18.4175 37.1072 -21.3697C39.5151 -24.5087 43.3229 -23.5931 46.664 -23.3129C50.0611 -23.0326 51.517 -21.1828 51.4424 -17.8196C51.3864 -15.6896 50.6958 -13.8772 48.4932 -13.2979C46.1414 -12.6627 44.8908 -14.1201 44.1255 -16.138C43.9575 -16.5864 43.7335 -17.0162 43.3415 -17.8757C42.2216 -17.7075 40.6164 -17.913 39.9071 -17.2217C38.6938 -16.0259 37.7232 -14.3443 37.2566 -12.7C36.3979 -9.69182 38.0965 -6.51545 41.0457 -5.89886C47.8586 -4.49751 54.7275 -3.41381 62.567 -2.01246C61.1298 -4.01171 60.1965 -5.17015 59.3939 -6.42202C55.3621 -12.6253 58.8339 -20.6223 66.0202 -21.7247C70.9479 -22.4907 76.2302 -18.8099 76.7902 -14.1014C76.9395 -12.8869 76.7902 -11.4108 76.2116 -10.3831C75.297 -8.77627 73.6917 -7.63652 71.7132 -8.47732C69.6786 -9.33681 70.0706 -10.9624 70.9105 -12.5692C71.1159 -12.9616 71.0599 -13.5035 71.1345 -13.9145C67.9801 -16.6612 65.1242 -16.9788 63.1083 -14.8301C61.0551 -12.6253 61.2978 -7.76731 63.967 -5.54384C66.7855 -3.18959 69.716 -1.17166 73.8597 -1.07823C81.4753 -0.872702 89.0721 -0.0505733 96.6503 0.69681C98.4422 0.864971 100.159 1.70577 101.914 2.24762C101.858 2.65868 101.821 3.05106 101.765 3.46212C100.103 3.64896 98.4236 4.02265 96.7623 3.98528C89.9681 3.81712 83.1365 3.79845 76.3795 3.21922C70.5746 2.73343 65.8895 5.01294 61.5591 8.26405C60.1032 9.34776 59.0953 11.2723 58.3113 12.9912C57.1914 15.4576 58.106 17.4942 60.1965 18.1669C62.6417 18.9516 65.5535 17.7558 66.2815 15.5323C66.5801 14.6355 66.3935 13.5705 66.6735 12.6549C67.2521 10.8612 68.6147 10.0391 70.4626 10.4501C72.3291 10.8612 73.3184 12.2812 72.8891 14.075C71.8998 18.2416 68.8013 20.6332 65.0496 22.0533C61.6151 23.3612 58.2366 22.6325 55.5488 20.1474C53.7756 18.5032 53.3649 16.1863 53.9996 13.8321C54.9702 10.3194 56.5754 7.18035 59.6552 4.99425C60.5512 4.35898 61.4471 3.76108 63.183 2.56527L63.2203 2.60263Z" fill="#CF7563"/>
<path d="M227.664 2.37845C227.626 2.65871 227.664 3.48084 227.44 4.26559C226.395 8.1333 225.629 12.1505 224.099 15.8313C222.232 20.3156 218.555 23.6602 214.206 25.4726C209.652 27.3597 204.668 28.9479 199.796 29.1161C193.114 29.3777 187.234 26.4629 182.829 21.0817C181.616 19.6056 180.123 18.3911 178.891 16.9337C177.957 15.8313 177.006 14.6542 176.502 13.3463C174.112 7.25512 173.403 1.10791 176.408 -5.03932C176.688 -5.61854 177.173 -6.21645 177.173 -6.81436C177.117 -11.7658 180.291 -14.7553 183.613 -17.6888C187.029 -20.697 191.005 -22.2665 195.503 -22.6402C196.156 -22.6962 196.922 -22.5655 197.407 -22.8831C201.308 -25.3868 205.172 -24.0976 209.073 -22.9391C213.441 -21.6312 216.856 -19.0714 219.6 -15.5027C220.198 -14.7366 220.664 -13.8398 221.336 -13.1671C225.872 -8.72019 227.738 -4.36668 227.682 2.34108L227.664 2.37845ZM223.333 1.50028C222.96 -2.64769 222.624 -6.29119 220.104 -9.0565C217.715 -11.691 215.121 -14.1948 212.321 -16.3809C208.774 -19.1836 204.612 -20.6223 200.057 -19.6507C196.903 -18.978 193.786 -18.0064 190.762 -16.8853C186.338 -15.2411 182.904 -12.3076 181.317 -7.74859C180.365 -5.00196 179.787 -2.10584 179.301 0.752897C178.312 6.63854 178.984 12.0571 184.098 16.0929C185.61 17.2887 186.861 18.8396 188.298 20.1475C192.909 24.3328 198.06 26.3321 204.295 24.0152C206.105 23.3425 208.14 23.1557 209.857 22.3149C212.433 21.063 215.065 19.7551 217.248 17.924C222.493 13.5144 221.467 6.69459 223.352 1.50028H223.333Z" fill="#CF7563"/>
<path d="M107.887 34.9083C107.924 37.1131 105.218 39.841 102.885 39.9531C100.57 40.0839 98.6476 38.2528 98.5357 35.7865C98.4237 33.1146 100.589 30.8911 103.351 30.8911C105.815 30.8911 107.868 32.7035 107.906 34.9083H107.887Z" fill="#CF7563"/>
<path d="M154.495 43.6339C154.626 45.3903 152.796 47.1279 150.668 47.2961C148.671 47.4455 147.047 46.2497 146.786 44.4373C146.506 42.4381 147.981 40.7752 150.22 40.5883C152.386 40.4015 154.364 41.8215 154.495 43.6339Z" fill="#CF7563"/>
<path d="M184.864 104.471C184.808 106.881 182.829 108.75 180.496 108.6C178.013 108.432 176.091 106.283 176.11 103.724C176.128 101.07 178.069 99.0525 180.589 99.0525C183.072 99.0525 184.938 101.425 184.864 104.471Z" fill="#CF7563"/>
<path d="M199.498 19.9606C197.388 19.1198 195.447 18.4659 193.618 17.5877C192.61 17.1206 191.733 16.3545 190.855 15.6258C183.221 9.36648 181.859 -0.629774 188.037 -8.43992C189.698 -10.5326 192.666 -11.8405 195.261 -12.9242C205.825 -17.3525 212.825 -11.3734 217.23 -2.79718C220.272 3.14452 215.457 14.3926 209.26 16.9524C206.161 18.2416 202.839 18.9517 199.498 19.9606Z" fill="#CF7563"/>
</g>
<defs>
<clipPath id="clip0_236_5619">
<rect width="402" height="423" fill="white" transform="translate(0 -209)"/>
</clipPath>
</defs>
</svg>
